<svg width="91" height="21" viewBox="0 0 91 21" fill="none" xmlns="http://www.w3.org/2000/svg">
<path d="M52.9181 0.615723H78.498V20.3899H49.1113C51.6251 14.2451 52.9181 7.66949 52.9181 1.03036V0.615723Z" fill="#504EBA"/>
<path d="M54.3146 14.542C54.3146 15.3489 54.1601 16.1105 53.8512 16.8267C53.5513 17.5339 53.1333 18.155 52.5971 18.6899C52.07 19.2158 51.4475 19.6328 50.7296 19.9411C50.0208 20.2403 49.262 20.3899 48.4532 20.3899C47.7263 20.3899 47.0265 20.263 46.3541 20.0091C45.6907 19.7552 45.0909 19.3835 44.5548 18.8939C44.0186 19.3835 43.4143 19.7552 42.7418 20.0091C42.0693 20.263 41.3696 20.3899 40.6426 20.3899C39.8338 20.3899 39.0705 20.2403 38.3526 19.9411C37.6438 19.6328 37.0213 19.2158 36.4851 18.6899C35.9581 18.155 35.54 17.5339 35.2311 16.8267C34.9312 16.1105 34.7812 15.3489 34.7812 14.542V0.615723H38.6934V14.542C38.6934 14.814 38.7434 15.0724 38.8433 15.3172C38.9433 15.5529 39.0796 15.7614 39.2523 15.9428C39.434 16.115 39.643 16.251 39.8793 16.3508C40.1156 16.4505 40.37 16.5003 40.6426 16.5003C40.9152 16.5003 41.1697 16.4505 41.406 16.3508C41.6422 16.251 41.8467 16.115 42.0194 15.9428C42.2011 15.7614 42.342 15.5529 42.4419 15.3172C42.5419 15.0724 42.5919 14.814 42.5919 14.542V0.615723H46.504V14.542C46.504 14.814 46.554 15.0724 46.6539 15.3172C46.7539 15.5529 46.8902 15.7614 47.0629 15.9428C47.2446 16.115 47.4536 16.251 47.6899 16.3508C47.9262 16.4505 48.1806 16.5003 48.4532 16.5003C48.7259 16.5003 48.9803 16.4505 49.2166 16.3508C49.4529 16.251 49.6573 16.115 49.83 15.9428C50.0117 15.7614 50.1526 15.5529 50.2526 15.3172C50.3616 15.0724 50.4161 14.814 50.4161 14.542V0.615723H54.3146V14.542Z" fill="white"/>
<path d="M20.8906 4.51888V12.3252H24.8028C25.3389 12.3252 25.8433 12.2255 26.3158 12.026C26.7884 11.8175 27.2018 11.5364 27.5562 11.1828C27.9107 10.8292 28.1878 10.4167 28.3877 9.94522C28.5968 9.46469 28.7013 8.95696 28.7013 8.42204C28.7013 7.88711 28.5968 7.38391 28.3877 6.91245C28.1878 6.43193 27.9107 6.01486 27.5562 5.66127C27.2018 5.30767 26.7884 5.03114 26.3158 4.83168C25.8433 4.62315 25.3389 4.51888 24.8028 4.51888H20.8906ZM20.8906 20.1179H16.9785V0.615723H24.8028C25.5207 0.615723 26.2113 0.710922 26.8747 0.90132C27.5381 1.08265 28.156 1.34558 28.7285 1.69011C29.3101 2.02557 29.8372 2.43357 30.3097 2.9141C30.7914 3.38556 31.2003 3.91142 31.5365 4.49168C31.8819 5.07194 32.1454 5.693 32.3271 6.35486C32.518 7.01672 32.6134 7.70578 32.6134 8.42204C32.6134 9.49189 32.4089 10.5028 32 11.4548C31.5911 12.3977 31.0322 13.2228 30.3234 13.93C29.6145 14.6372 28.783 15.1948 27.8289 15.6028C26.8838 16.0108 25.8751 16.2148 24.8028 16.2148H20.8906V20.1179Z" fill="white"/>
<path d="M14.2392 20.1179H0.839844V0.615723H14.2392V4.51888H4.75197V8.42204H11.1722V12.3252H4.75197V16.2148H14.2392V20.1179Z" fill="white"/>
<path d="M61.7004 8.68656V7.20699H64.278V14H62.6216V8.68656H61.7004ZM70.1496 8.59351H67.2463V9.87767C67.3703 9.74119 67.544 9.62952 67.7674 9.54267C67.9907 9.45582 68.2326 9.41239 68.4932 9.41239C68.9585 9.41239 69.3431 9.51785 69.6471 9.72878C69.9573 9.9397 70.1837 10.2127 70.3264 10.5477C70.4691 10.8827 70.5404 11.2456 70.5404 11.6364C70.5404 12.3622 70.3357 12.9392 69.9262 13.3672C69.5168 13.7891 68.9399 14 68.1954 14C67.6991 14 67.268 13.9163 66.9019 13.7488C66.5359 13.575 66.2537 13.3362 66.0551 13.0322C65.8566 12.7282 65.7481 12.3777 65.7295 11.9807H67.2835C67.3207 12.173 67.4106 12.3343 67.5533 12.4646C67.696 12.5887 67.8914 12.6507 68.1396 12.6507C68.4312 12.6507 68.6483 12.5576 68.791 12.3715C68.9336 12.1854 69.005 11.9373 69.005 11.6271C69.005 11.3231 68.9305 11.0905 68.7817 10.9292C68.6328 10.7679 68.4156 10.6872 68.1303 10.6872C67.9193 10.6872 67.7456 10.74 67.6092 10.8454C67.4727 10.9447 67.3827 11.0781 67.3393 11.2456H65.8039V7.19768H70.1496V8.59351Z" fill="white"/>
</svg>
