<svg width="52" height="51" viewBox="0 0 52 51" fill="none" xmlns="http://www.w3.org/2000/svg">
<path d="M12.1266 18.9368C11.6326 19.0627 11.2551 19.1465 10.8893 19.2584C9.65902 19.6312 8.45436 20.0739 7.39417 20.8172C6.58097 21.3858 5.98214 22.1104 5.83767 23.1473C5.76862 23.782 5.88518 24.423 6.1732 24.9928C6.5784 25.9128 7.2062 26.7176 8 27.3345C9.03689 28.1337 9.24659 29.2428 9.32814 30.4289C9.34678 30.7038 9.18601 30.8063 8.93902 30.776C8.81122 30.7552 8.68814 30.7118 8.57553 30.6479C6.67883 29.6063 4.77514 28.5694 3.1231 27.1527C2.23757 26.4426 1.50315 25.5624 0.963118 24.564C0.198848 23.0401 0.543704 21.7027 1.95574 20.7357C3.06719 19.9761 4.33477 19.6009 5.62564 19.3073C7.70385 18.8652 9.81674 18.6055 11.9402 18.5314C12.0781 18.5361 12.2143 18.4999 12.3316 18.4273C12.449 18.3547 12.5422 18.2491 12.5996 18.1236C14.441 14.9924 17.2921 12.58 20.685 11.2825C25.231 9.52559 29.6932 9.91005 34.0318 12.0561C34.111 12.0934 34.1926 12.126 34.3324 12.1866C34.2998 11.9885 34.2858 11.8394 34.2485 11.6949C33.9428 10.3563 33.4625 9.06374 32.8201 7.85025C32.5901 7.4441 32.3183 7.06301 32.0093 6.71317C31.0772 5.66463 29.9122 5.46656 28.6796 6.12365C27.778 6.5709 27.0086 7.24553 26.4473 8.08093C25.8019 9.09918 24.9095 9.3718 23.819 9.36015C23.6256 9.36015 23.4299 9.38578 23.2365 9.3718C22.88 9.34617 22.7495 9.18539 22.8031 8.83588C22.8262 8.7124 22.8712 8.59404 22.9359 8.48637C24.0823 6.44986 25.266 4.432 26.918 2.75433C27.4637 2.2014 28.0766 1.71918 28.7425 1.319C30.038 0.545405 31.3732 0.85298 32.2819 2.05764C33.1534 3.22269 33.6194 4.56482 33.9805 5.94889C34.4876 7.95931 34.7759 10.0186 34.8403 12.091C34.8339 12.2314 34.8661 12.3708 34.9335 12.4941C35.0009 12.6173 35.1008 12.7197 35.2225 12.79C39.1487 15.4347 41.6186 19.0533 42.3689 23.7578C42.9478 27.1328 42.4001 30.6046 40.81 33.6374C40.7075 33.8331 40.619 34.0335 40.5281 34.2316C40.5281 34.2502 40.5281 34.2805 40.5514 34.376C40.9126 34.3108 41.2784 34.2642 41.6349 34.178C42.9005 33.8938 44.1185 33.4284 45.2512 32.7962C46.132 32.2836 46.8636 31.6032 46.9615 30.529C46.9934 29.9905 46.9141 29.4512 46.7285 28.9446C46.3688 27.9924 45.775 27.1461 45.0019 26.484C44.6392 26.1584 44.3563 25.7536 44.1753 25.301C43.9942 24.8484 43.9199 24.3602 43.958 23.8743C43.958 23.6133 43.958 23.35 44.2469 23.2056C44.3749 23.1389 44.5194 23.1109 44.663 23.1249C44.8065 23.139 44.9429 23.1946 45.0555 23.2848C45.6054 23.6716 46.1576 24.0607 46.6865 24.4685C48.1359 25.5683 49.5386 26.7217 50.6593 28.171C51.2256 28.905 51.7289 29.6716 51.8244 30.6339C51.8706 31.0098 51.8119 31.3912 51.6548 31.7358C51.4977 32.0804 51.2483 32.3748 50.9343 32.5865C49.9865 33.2567 48.8976 33.7007 47.7514 33.8844C46.0644 34.2036 44.3611 34.4436 42.6601 34.6789C41.9136 34.7644 41.163 34.8103 40.4116 34.8164C40.0784 34.8164 39.9735 35.0494 39.8361 35.2661C38.484 37.3083 36.6705 39.0036 34.5421 40.2152C31.7594 41.843 28.5491 42.5903 25.3336 42.3589C22.2066 42.1422 19.3965 41.0145 16.838 39.225L16.605 39.0688C16.605 39.0688 16.5817 39.0688 16.5328 39.0688C16.5188 39.1756 16.5188 39.2837 16.5328 39.3904C16.9149 40.7512 17.3227 42.1026 18.0963 43.3049C18.224 43.5001 18.3641 43.6869 18.5157 43.8642C19.492 45.0292 20.7037 45.2809 22.0644 44.6028C22.365 44.4537 22.6237 44.2184 22.9289 44.0855C23.2286 43.9472 23.5522 43.8681 23.8819 43.8525C24.374 43.8634 24.8646 43.9101 25.3499 43.9923C26.0489 44.0855 26.2237 44.4211 25.8555 45.0316C24.8466 46.7092 23.7002 48.2937 22.0551 49.3958C21.5615 49.7259 21.007 49.9541 20.424 50.0669C19.4105 50.2673 18.6462 49.7616 18.073 48.9531C17.3413 47.9162 16.9872 46.7232 16.7262 45.5046C16.2902 43.5307 16.0506 41.5186 16.0109 39.4976C16.0188 39.1914 15.9604 38.8871 15.8397 38.6056C15.7191 38.3241 15.539 38.072 15.3118 37.8665C12.9169 35.5601 11.2969 32.5672 10.6755 29.3009C10.054 26.0346 10.4617 22.6559 11.8423 19.6312C11.9332 19.4378 12.0008 19.2467 12.1266 18.9368ZM11.4765 26.272C11.4512 30.2518 13.0078 34.0786 15.804 36.9106C18.6003 39.7427 22.407 41.348 26.3868 41.3733C30.3665 41.3986 34.1934 39.842 37.0255 37.0458C39.8575 34.2495 41.4628 30.4428 41.4881 26.463C41.558 18.1399 34.8869 11.4293 26.7759 11.3174C18.4062 11.1939 11.4765 17.8487 11.4765 26.272Z" fill="white"/>
<path d="M27.1707 47.8325C27.0146 47.8325 26.8584 47.8325 26.7047 47.8325C26.1617 47.8325 25.9008 47.5995 25.8985 47.1125C25.8961 46.6255 26.1501 46.4485 26.7186 46.3902C27.9909 46.2574 29.2817 46.2061 30.526 45.9242C36.0274 44.7172 40.345 41.7673 43.3695 36.9813C43.5643 36.6755 43.7759 36.3806 44.0033 36.0982C44.0469 36.0289 44.1038 35.9689 44.1708 35.9217C44.2377 35.8746 44.3134 35.8411 44.3933 35.8234C44.4733 35.8056 44.556 35.8038 44.6366 35.8182C44.7172 35.8326 44.7942 35.8628 44.8631 35.9071C45.0111 35.9898 45.125 36.1222 45.1847 36.2808C45.2444 36.4395 45.246 36.6142 45.1893 36.7739C45.0836 37.0377 44.9525 37.2905 44.7978 37.5289C41.6359 42.499 37.2297 45.7844 31.5163 47.2197C30.1182 47.5739 28.641 47.7044 27.201 47.9374L27.1707 47.8325Z" fill="white"/>
<path d="M22.0908 5.19165C22.5568 5.19165 22.7898 5.3664 22.8597 5.72757C22.9412 6.15398 22.8015 6.43826 22.3727 6.57108C21.5595 6.82273 20.7183 6.99981 19.9168 7.28175C15.1564 8.8903 11.176 12.2319 8.7673 16.6417C8.64147 16.8747 8.53429 17.1078 8.40613 17.3291C8.31248 17.5025 8.15532 17.6328 7.96763 17.6927C7.77995 17.7527 7.57634 17.7376 7.39953 17.6507C7.31309 17.612 7.23568 17.5557 7.17231 17.4854C7.10894 17.415 7.06101 17.3322 7.0316 17.2422C7.00219 17.1522 6.99194 17.0571 7.00154 16.9629C7.01113 16.8687 7.04034 16.7775 7.08729 16.6953C7.46598 15.9299 7.88843 15.1869 8.35253 14.4701C11.5914 9.6266 16.0527 6.5501 21.7366 5.24059C21.7994 5.2252 21.8633 5.2143 21.9277 5.20796C22.0046 5.19398 22.0581 5.19165 22.0908 5.19165Z" fill="white"/>
<path d="M47.5121 21.8988C47.5121 22.521 47.2931 22.8309 46.8783 22.8984C46.5428 22.959 46.2422 22.7749 46.1071 22.3345C45.8741 21.5703 45.7063 20.7804 45.4593 20.0208C44.426 16.8341 42.6014 13.9617 40.156 11.672C39.0609 10.6198 37.8372 9.71007 36.5141 8.96447C36.4349 8.9202 36.3556 8.8736 36.2811 8.82234C35.8826 8.56137 35.7452 8.13963 35.9432 7.79244C36.049 7.61827 36.2195 7.4932 36.4175 7.44471C36.6154 7.39621 36.8244 7.42824 36.9987 7.53379C37.3767 7.73365 37.7431 7.95459 38.0962 8.19554C42.6865 11.2247 45.7086 15.3746 47.2022 20.6569C47.3304 21.1159 47.4329 21.5819 47.5121 21.8988Z" fill="white"/>
<path d="M5.40625 31.3215C5.40625 30.7599 5.56935 30.5153 5.94217 30.4314C6.02924 30.4001 6.12203 30.388 6.2142 30.3959C6.30638 30.4037 6.39577 30.4314 6.47628 30.477C6.55679 30.5225 6.62652 30.5849 6.68072 30.6599C6.73492 30.7349 6.77231 30.8207 6.79033 30.9114C7.0746 31.7293 7.28897 32.5704 7.5779 33.386C8.41458 35.6684 9.68003 37.7699 11.306 39.577C12.282 40.707 13.3932 41.7126 14.6148 42.5712C14.8897 42.7646 15.1157 42.9743 15.0808 43.3587C15.0412 43.8714 14.6987 44.144 14.2047 43.9879C13.9863 43.9087 13.7806 43.798 13.5942 43.6593C12.287 42.7692 11.1895 41.6531 10.1317 40.4881C7.85517 37.9739 6.44547 35.003 5.4878 31.7898C5.45088 31.6356 5.42365 31.4792 5.40625 31.3215Z" fill="white"/>
<path d="M27.3854 21.069C27.3817 19.9369 27.0846 18.825 26.5233 17.8418C26.253 17.3409 25.9221 16.8725 25.6355 16.3809C25.4794 16.1129 25.314 16.0779 25.039 16.2224C23.6806 16.9561 22.4089 17.8401 21.2479 18.8577C21.0592 19.0185 20.8844 19.1933 20.705 19.361C19.8173 20.1859 19.4351 21.1762 19.7567 22.3762C19.9897 23.222 20.2227 24.0632 20.4743 24.9067C20.5528 25.1249 20.6128 25.3494 20.6538 25.5777C20.7074 26.1393 20.225 26.5307 19.7217 26.2768C18.2118 25.4729 17.1749 26.4888 16.0495 27.1762C16.0122 27.2231 15.9864 27.2781 15.9742 27.3368C15.9621 27.3955 15.9639 27.4562 15.9796 27.514C16.2898 28.5389 16.9131 29.4409 17.7621 30.0934C18.0464 30.3008 18.4844 30.3102 18.8596 30.3777C19.0277 30.3877 19.1964 30.3736 19.3606 30.3358C19.4994 30.2968 19.6474 30.3071 19.7795 30.3649C19.9115 30.4226 20.0196 30.5243 20.0852 30.6527C20.168 30.7874 20.2017 30.9467 20.1804 31.1034C20.1592 31.2601 20.0844 31.4046 19.9687 31.5125C19.759 31.7073 19.5969 31.9477 19.4951 32.2152C19.3933 32.4827 19.3544 32.7701 19.3815 33.055C19.4068 33.4418 19.4974 33.8216 19.6495 34.1781C19.9384 34.7816 20.3112 35.3432 20.6514 35.9233C20.6668 35.9627 20.691 35.9979 20.7222 36.0264C20.7534 36.0548 20.7907 36.0757 20.8312 36.0875C20.8718 36.0992 20.9145 36.1014 20.956 36.094C20.9976 36.0865 21.0369 36.0696 21.0708 36.0445C21.933 35.5785 22.7905 35.1125 23.4242 34.3575C23.6222 34.107 23.7622 33.8157 23.8343 33.5047C23.9415 33.0806 24.1466 32.8453 24.5334 32.8523C24.7171 32.8576 24.8918 32.9329 25.0218 33.0629C25.1518 33.1928 25.2271 33.3676 25.2324 33.5513C25.2393 33.9222 25.1662 34.2901 25.018 34.6301C24.8 35.0418 24.515 35.4143 24.1745 35.7323C23.2611 36.5991 22.1567 37.1769 21.0196 37.6919C20.868 37.7845 20.6884 37.8201 20.5129 37.7923C20.3374 37.7646 20.1776 37.6753 20.0619 37.5404C19.164 36.5818 18.4809 35.4426 18.058 34.1991C17.8749 33.5218 17.8494 32.8116 17.9835 32.123C17.9975 32.0204 17.9276 31.8247 17.8553 31.8014C16.66 31.4239 15.8957 30.5571 15.3178 29.5179C14.962 28.8435 14.6461 28.1487 14.3718 27.4372C14.1645 26.9269 14.2646 26.6636 14.6887 26.3164C15.7885 25.4193 16.9932 24.7342 18.4169 24.5036C18.6499 24.4663 18.6732 24.3591 18.6242 24.1517C18.4705 23.497 18.3167 22.8422 18.2048 22.1805C17.9066 20.4073 18.7687 19.1094 19.978 17.9676C21.3574 16.6675 22.9605 15.6888 24.6196 14.7964C25.7543 14.1859 25.8895 14.2162 26.6514 15.2624C27.7046 16.7001 28.5155 18.2496 28.7835 20.0368C28.8495 20.535 28.862 21.0388 28.8207 21.5397C28.819 21.6409 28.797 21.7406 28.7561 21.8332C28.7152 21.9258 28.6562 22.0092 28.5827 22.0787C28.5091 22.1481 28.4224 22.2022 28.3276 22.2377C28.2328 22.2732 28.1319 22.2894 28.0308 22.2853C27.6301 22.2597 27.3807 21.9358 27.3761 21.4278L27.3854 21.069Z" fill="white"/>
<path d="M26.1309 25.6685C26.1562 24.9675 26.4112 24.2943 26.8566 23.7524C27.3021 23.2106 27.9132 22.8302 28.5961 22.6697C29.2608 22.5266 29.9543 22.6112 30.565 22.91C31.1757 23.2088 31.6682 23.7044 31.9631 24.3171C32.255 24.9294 32.3359 25.6212 32.193 26.2843C32.0501 26.9475 31.6914 27.5446 31.1732 27.9823C31.002 28.1208 30.8121 28.2345 30.6093 28.3202C30.4393 28.4005 30.2447 28.4116 30.0666 28.3512C29.8885 28.2907 29.7409 28.1633 29.655 27.996C29.5691 27.8288 29.5516 27.6346 29.6062 27.4547C29.6608 27.2747 29.7832 27.123 29.9476 27.0316C30.1635 26.9121 30.3495 26.7452 30.4916 26.5434C30.6337 26.3416 30.7281 26.1102 30.7677 25.8666C30.8314 25.4667 30.7372 25.0578 30.505 24.7261C30.2729 24.3944 29.9209 24.1659 29.5235 24.0887C28.6567 23.9536 27.7456 24.599 27.6967 25.4285C27.698 25.7122 27.7684 25.9913 27.9017 26.2417C28.5122 27.4697 29.1483 28.686 29.7658 29.907C29.8519 30.0667 29.9297 30.2308 29.9988 30.3986C30.0684 30.553 30.0796 30.7273 30.0303 30.8893C29.981 31.0513 29.8746 31.1899 29.7308 31.2794C29.5831 31.377 29.4046 31.4169 29.2293 31.3916C29.0541 31.3662 28.8942 31.2774 28.7802 31.1419C28.6961 31.0437 28.6241 30.9357 28.5658 30.8203C27.8877 29.5551 27.1957 28.2969 26.5503 27.0153C26.3741 26.5785 26.2338 26.1281 26.1309 25.6685Z" fill="white"/>
<path d="M23.4384 31.8783C21.7701 31.8783 20.6563 31.0535 20.2509 29.7976C19.8198 28.4671 20.1996 27.1529 21.3437 26.4003C22.1464 25.9041 22.9764 25.4537 23.8299 25.0512C23.9125 25.005 24.0036 24.976 24.0977 24.966C24.1917 24.9561 24.2869 24.9653 24.3773 24.9932C24.4677 25.0211 24.5515 25.067 24.6236 25.1283C24.6957 25.1895 24.7547 25.2647 24.7969 25.3494C24.8418 25.4326 24.8698 25.5238 24.8794 25.6179C24.8889 25.7119 24.8798 25.8069 24.8525 25.8974C24.8252 25.9879 24.7803 26.0721 24.7204 26.1452C24.6605 26.2183 24.5867 26.2789 24.5033 26.3234C24.1398 26.5564 23.7507 26.7265 23.3732 26.9269C22.9957 27.1273 22.6276 27.2927 22.2804 27.5164C21.9555 27.7259 21.7202 28.0488 21.6203 28.4222C21.5204 28.7956 21.563 29.1929 21.7398 29.5366C21.9038 29.8869 22.195 30.1616 22.5542 30.3048C22.9135 30.4481 23.3138 30.4492 23.6738 30.3079C24.0932 30.1471 24.4823 29.9024 24.8878 29.7044C25.2932 29.5063 25.6753 29.3129 26.0831 29.1521C26.1578 29.1177 26.2386 29.0985 26.3208 29.0957C26.403 29.093 26.4849 29.1066 26.5617 29.1359C26.6385 29.1652 26.7087 29.2096 26.7682 29.2664C26.8277 29.3232 26.8752 29.3913 26.908 29.4667C27.0757 29.7789 27.0664 30.1657 26.7658 30.3475C25.6357 31.0884 24.4823 31.7735 23.4384 31.8783Z" fill="white"/>
<path d="M38.5107 22.3689C38.5187 23.04 38.3062 23.6952 37.9059 24.234C37.5056 24.7727 36.9397 25.1653 36.2948 25.3514C35.6712 25.5441 35.0014 25.5256 34.3893 25.299C33.7772 25.0724 33.2569 24.6501 32.9092 24.0978C32.4781 23.3988 32.0913 22.6578 31.7278 21.9122C31.4016 21.2411 31.7278 20.6236 32.3686 20.7215C32.6341 20.7956 32.8621 20.967 33.007 21.2015C33.3169 21.6908 33.5406 22.2361 33.8319 22.7394C34.0101 23.0682 34.2319 23.3716 34.4913 23.6411C34.7117 23.8661 35.0032 24.0079 35.3162 24.0423C35.6293 24.0767 35.9446 24.0016 36.2086 23.8298C36.8098 23.478 37.1616 22.7813 36.9822 22.1545C36.8389 21.7407 36.6637 21.3387 36.4579 20.9522C36.2599 20.5304 36.0222 20.125 35.8567 19.6916C35.6237 19.0858 35.7962 18.7339 36.3064 18.5825C36.4425 18.531 36.5928 18.5321 36.7281 18.5856C36.8634 18.639 36.9739 18.7409 37.0381 18.8714C37.5344 19.85 38.0004 20.8427 38.4548 21.8399C38.5042 22.0116 38.5231 22.1907 38.5107 22.3689Z" fill="white"/>
<path d="M23.2516 29.5348C22.7856 29.5604 22.5526 29.3764 22.4501 29.0525C22.3889 28.9054 22.384 28.7409 22.4365 28.5904C22.4889 28.44 22.595 28.3141 22.7344 28.2369C23.452 27.8292 24.186 27.4447 24.9386 27.1022C25.0215 27.0627 25.1114 27.0399 25.2032 27.0351C25.2949 27.0304 25.3867 27.0437 25.4732 27.0745C25.5598 27.1052 25.6394 27.1527 25.7076 27.2142C25.7758 27.2757 25.8312 27.3501 25.8707 27.4331C25.9157 27.5059 25.9454 27.5872 25.9581 27.6719C25.9707 27.7566 25.966 27.843 25.9442 27.9258C25.9224 28.0086 25.884 28.0861 25.8313 28.1536C25.7786 28.2212 25.7127 28.2772 25.6377 28.3185C24.892 28.7542 24.1115 29.127 23.3425 29.5208C23.2959 29.5488 23.2214 29.5371 23.2516 29.5348Z" fill="white"/>
<path d="M36.2612 22.5019C36.1076 22.7164 35.9267 22.9098 35.7229 23.0774C35.5995 23.1546 35.4515 23.1823 35.3086 23.1551C35.1656 23.1279 35.0381 23.0477 34.9517 22.9306C34.8094 22.763 34.6874 22.5792 34.5882 22.3831C34.2993 21.8355 34.008 21.2856 33.7447 20.724C33.6923 20.6318 33.6605 20.5293 33.6512 20.4236C33.642 20.318 33.6557 20.2115 33.6913 20.1116C33.7269 20.0117 33.7836 19.9206 33.8575 19.8445C33.9315 19.7685 34.0209 19.7092 34.1198 19.6708C34.4321 19.5473 34.7466 19.58 34.9121 19.8736C35.3455 20.6355 35.7393 21.4231 36.1424 22.2036C36.1664 22.2789 36.1782 22.3576 36.1773 22.4367L36.2612 22.5019Z" fill="white"/>
</svg>
